# xmcd CD database file
#
# Track frame offsets:
#	150
#	12331
#	30528
#	48397
#	67813
#	93042
#	107496
#	123653
#	144633
#	159729
#	174882
#	195196
#
# Disc length: 3028 seconds
#
# Revision: 0
# Processed by: cddbd v1.5.2PL0 Copyright (c) Steve Scherf et al.
# Submitted via: CDex 1.51
#
DISCID=8e0bd20c
DTITLE=Crazy Chris Kramer - Chicago Blues
DYEAR=2010
DGENRE=Blues
TTITLE0=Harp Boogie
TTITLE1=Jedesmal
TTITLE2=Ich bat um einen Kuss zum Abschied
TTITLE3=Es gibt gut, besser und es gibt mich
TTITLE4=Die Frau von meinem Vermieter ist krank
TTITLE5=Darf ich bitten
TTITLE6=Froschkönig Blues
TTITLE7=Was geschehen ist, ist geschehen
TTITLE8=Ich beiss mich da jetzt durch
TTITLE9=Ich sitz hier und warte
TTITLE10=Ich wach heut morgen auf
TTITLE11=Viel zu lang gewartet
EXTD=YEAR: 2010
EXTT0=
EXTT1=
EXTT2=
EXTT3=
EXTT4=
EXTT5=
EXTT6=
EXTT7=
EXTT8=
EXTT9=
EXTT10=
EXTT11=
PLAYORDER=
